<svg xmlns="http://www.w3.org/2000/svg" xmlns:xlink="http://www.w3.org/1999/xlink" width="32" height="640" viewBox="0 0 32 640">
	<defs></defs>
	<symbol id="icon-arrow" viewBox="0 0 32 32">
		<title>arrow</title>
		<path d="M23.757 16.068c-0.092 0.072-0.193 0.135-0.274 0.217-4.977 4.974-9.953 9.95-14.929 14.926-0.082 0.082-0.169 0.16-0.305 0.289 0-0.154 0-0.24 0-0.326 0-2.383-0.004-4.765 0.009-7.148 0.001-0.156 0.089-0.35 0.201-0.463 2.427-2.442 4.863-4.874 7.297-7.309 0.077-0.077 0.15-0.157 0.235-0.247-0.090-0.094-0.164-0.175-0.241-0.252-2.427-2.428-4.853-4.856-7.284-7.279-0.155-0.154-0.222-0.305-0.222-0.526 0.008-2.483 0.005-4.967 0.005-7.45 0.020 0 0.041 0 0.061 0 0.057 0.077 0.106 0.164 0.174 0.231 5.013 5.015 10.027 10.029 15.042 15.042 0.068 0.068 0.154 0.116 0.232 0.174 0 0.040 0 0.080 0 0.121z"></path>
	</symbol>
	<symbol id="icon-arrow-2" viewBox="0 0 32 32">
		<title>arrow-2</title>
		<path d="M31.499 16.069c-0.092 0.072-0.193 0.135-0.274 0.217-4.974 4.972-9.947 9.945-14.92 14.917-0.082 0.082-0.169 0.16-0.305 0.289 0-0.154 0-0.24 0-0.326 0-2.381-0.004-4.763 0.009-7.144 0.001-0.156 0.089-0.35 0.201-0.462 2.425-2.44 4.861-4.871 7.293-7.304 0.077-0.077 0.15-0.157 0.234-0.247-0.090-0.094-0.164-0.175-0.241-0.251-2.425-2.426-4.85-4.853-7.28-7.275-0.155-0.154-0.222-0.305-0.221-0.526 0.009-2.482 0.005-4.965 0.005-7.446 0.020 0 0.041 0 0.061 0 0.057 0.077 0.106 0.164 0.174 0.231 5.010 5.012 10.021 10.024 15.033 15.033 0.068 0.067 0.154 0.116 0.232 0.174-0 0.041-0 0.081-0 0.121z"></path>
		<path d="M0.561 0.531c0.072 0.092 0.135 0.192 0.216 0.274 4.983 4.986 9.967 9.97 14.953 14.952 0.084 0.084 0.197 0.138 0.311 0.217-0.141 0.148-0.214 0.229-0.291 0.305-4.991 4.991-9.982 9.983-14.975 14.973-0.082 0.082-0.183 0.145-0.275 0.217 0-2.583 0-5.167 0-7.75 0.078-0.058 0.164-0.107 0.232-0.174 2.435-2.432 4.867-4.865 7.3-7.298 0.069-0.069 0.132-0.144 0.2-0.219-0.042-0.048-0.066-0.080-0.094-0.108-2.49-2.491-4.979-4.981-7.471-7.469-0.046-0.046-0.111-0.074-0.167-0.11 0-2.522-0.001-5.045 0.002-7.568 0-0.081 0.037-0.162 0.058-0.242z"></path>
	</symbol>
	<symbol id="icon-search" viewBox="0 0 32 32">
		<title>search</title>
		<path d="M12.564 0.501c0.205 0.013 0.409 0.027 0.614 0.039 0.849 0.052 1.681 0.204 2.497 0.443 1.436 0.421 2.745 1.090 3.926 2.010 1.332 1.036 2.396 2.299 3.192 3.787 0.587 1.097 0.988 2.259 1.205 3.484 0.17 0.964 0.222 1.934 0.152 2.911-0.117 1.641-0.558 3.188-1.317 4.646-0.327 0.627-0.709 1.219-1.142 1.778-0.022 0.028-0.044 0.057-0.070 0.091 0.020 0.023 0.037 0.046 0.057 0.066 0.309 0.31 0.62 0.618 0.927 0.93 0.047 0.048 0.080 0.056 0.143 0.025 0.857-0.421 1.849-0.257 2.53 0.421 1.226 1.216 2.451 2.436 3.677 3.653 0.614 0.61 1.228 1.22 1.844 1.828 0.362 0.358 0.599 0.78 0.67 1.288 0.096 0.687-0.077 1.302-0.547 1.81-0.392 0.423-0.796 0.837-1.225 1.223-0.884 0.796-2.208 0.744-3.047-0.1-1.536-1.545-3.071-3.092-4.606-4.637-0.308-0.311-0.619-0.619-0.925-0.933-0.447-0.459-0.667-1.011-0.655-1.652 0.006-0.305 0.081-0.595 0.211-0.871 0.013-0.029 0.017-0.085 0-0.102-0.337-0.343-0.676-0.682-0.997-1.003-0.478 0.314-0.935 0.639-1.415 0.925-1.094 0.652-2.269 1.103-3.516 1.366-0.876 0.185-1.761 0.271-2.655 0.25-1.66-0.039-3.246-0.401-4.752-1.105-1.329-0.622-2.505-1.458-3.52-2.518-1.546-1.613-2.564-3.511-3.041-5.697-0.154-0.704-0.24-1.416-0.262-2.136-0.001-0.053-0.010-0.106-0.015-0.158 0-0.146 0-0.292 0-0.438 0.006-0.056 0.014-0.111 0.016-0.167 0.014-0.563 0.073-1.123 0.171-1.678 0.215-1.211 0.607-2.36 1.181-3.448 0.691-1.31 1.595-2.451 2.713-3.421 1.44-1.249 3.087-2.105 4.939-2.561 0.656-0.162 1.323-0.268 1.998-0.308 0.201-0.011 0.403-0.025 0.604-0.038 0.147 0 0.293 0 0.439 0zM21.996 12.348c0-5.328-4.306-9.637-9.644-9.654-5.311-0.017-9.651 4.316-9.657 9.64-0.006 5.32 4.318 9.659 9.627 9.661 5.343 0.001 9.674-4.317 9.674-9.646z"></path>
		<path d="M15.629 18.157c-2.125 1.536-5.472 1.757-7.972-0.309-2.703-2.235-3.031-5.943-1.423-8.537-0.036 2.585 0.81 4.798 2.687 6.564 1.88 1.769 4.145 2.469 6.708 2.283z"></path>
	</symbol>
	<symbol id="icon-play" viewBox="0 0 32 32">
		<title>play</title>
		<path d="M29.135 15.969c-9.439 5.581-17.479 10.331-26.269 15.528 0-10.488 0-20.122 0-30.994 8.622 5.077 16.83 9.91 26.269 15.466z"></path>
	</symbol>
	<symbol id="icon-play-2" viewBox="0 0 32 32">
		<title>play-2</title>
		<path d="M0.534 15.843c0 3.841-0.068 7.686 0.019 11.525 0.084 3.678 1.786 4.856 5.104 3.264 7.751-3.719 15.458-7.54 23.078-11.519 3.732-1.947 3.666-4.274-0.144-6.244-7.632-3.946-15.337-7.753-23.070-11.497-3.28-1.587-4.884-0.459-4.97 3.343-0.084 3.708-0.018 7.419-0.016 11.127z"></path>
		<path d="M0.533 15.843c-0.001-3.708-0.067-7.42 0.018-11.127 0.087-3.802 1.691-4.931 4.97-3.343 7.734 3.743 15.438 7.551 23.070 11.497 3.81 1.97 3.876 4.296 0.144 6.244-7.62 3.978-15.326 7.8-23.078 11.519-3.319 1.592-5.021 0.415-5.104-3.264-0.088-3.839-0.020-7.684-0.021-11.525z"></path>
	</symbol>
	<symbol id="icon-eq" viewBox="0 0 32 32">
		<title>eq</title>
		<path d="M5.359 26.846c0 0.299-0.242 0.542-0.542 0.542h-3.6c-0.3 0-0.542-0.243-0.542-0.542v-17.132c0-0.3 0.243-0.542 0.542-0.542h3.6c0.3 0 0.542 0.243 0.542 0.542l0 17.132z"></path>
		<path d="M11.421 26.984c0 0.223-0.242 0.404-0.542 0.404h-3.601c-0.299 0-0.542-0.181-0.542-0.404v-12.771c0-0.223 0.243-0.404 0.542-0.404h3.6c0.3 0 0.542 0.181 0.542 0.404l0 12.771z"></path>
		<path d="M17.591 26.71c0 0.375-0.242 0.678-0.542 0.678h-3.601c-0.299 0-0.542-0.304-0.542-0.678v-21.421c0-0.374 0.243-0.678 0.542-0.678h3.601c0.3 0 0.542 0.304 0.542 0.678l0 21.421z"></path>
		<path d="M24.235 26.773c0 0.34-0.243 0.616-0.543 0.616h-3.601c-0.299 0-0.542-0.276-0.542-0.616v-19.444c0-0.34 0.243-0.616 0.542-0.616h3.601c0.3 0 0.543 0.276 0.543 0.616v19.444z"></path>
		<path d="M31.326 27.147c0 0.133-0.243 0.241-0.543 0.241h-3.601c-0.299 0-0.542-0.109-0.542-0.241v-7.65c0-0.133 0.243-0.241 0.542-0.241h3.601c0.3 0 0.543 0.109 0.543 0.241v7.65z"></path>
	</symbol>
	<symbol id="icon-radio" viewBox="0 0 32 32">
		<title>radio</title>
		<path d="M7.213 31.498c-0.124-0.073-0.262-0.131-0.371-0.223-0.452-0.384-0.61-0.865-0.387-1.425 0.279-0.701 0.583-1.393 0.883-2.086 0.613-1.414 1.227-2.827 1.846-4.238 0.391-0.892 0.797-1.779 1.187-2.672 0.604-1.385 1.196-2.774 1.802-4.159 0.47-1.075 0.954-2.144 1.429-3.217 0.233-0.526 0.456-1.056 0.683-1.584-1.788-1.015-2.165-2.831-1.781-4.201 0.496-1.77 1.935-2.674 3.524-2.657 1.606 0.017 2.987 0.908 3.476 2.68 0.379 1.37 0.003 3.154-1.794 4.178 0.386 0.88 0.773 1.761 1.157 2.644 0.535 1.23 1.065 2.463 1.602 3.693 0.391 0.893 0.796 1.779 1.187 2.672 0.605 1.385 1.197 2.775 1.802 4.158 0.47 1.075 0.956 2.144 1.427 3.218 0.22 0.501 0.407 1.015 0.641 1.509 0.295 0.622 0.009 1.363-0.65 1.643-0.033 0.014-0.060 0.044-0.089 0.067-0.245 0-0.488 0-0.733 0-0.125-0.074-0.254-0.141-0.373-0.222-0.403-0.278-0.521-0.742-0.704-1.151-0.594-1.325-1.156-2.662-1.74-3.991-0.021-0.048-0.156-0.084-0.222-0.067-1.419 0.378-2.837 0.764-4.254 1.147-2.338 0.631-4.674 1.268-7.017 1.881-0.237 0.062-0.366 0.167-0.449 0.369-0.088 0.21-0.158 0.429-0.255 0.635-0.261 0.546-0.436 1.161-1.093 1.399-0.245-0-0.489-0-0.734-0zM18.865 24.569c-2.155-0.775-4.261-1.532-6.41-2.304-0.66 1.507-1.313 3-2.003 4.573 2.846-0.767 5.6-1.51 8.412-2.269zM15.999 14.161c-0.72 1.649-1.408 3.221-2.13 4.874 1.282-0.487 2.464-0.935 3.655-1.387-0.506-1.157-1.001-2.288-1.525-3.488zM19.77 22.778c-0.49-1.118-0.966-2.204-1.446-3.299-1.253 0.476-2.473 0.939-3.754 1.425 1.772 0.639 3.467 1.25 5.199 1.874z"></path>
		<path d="M6.725 0.502c0.52 0.175 0.905 0.472 0.987 1.059 0.054 0.397-0.067 0.736-0.31 1.039-0.81 1.003-1.417 2.113-1.781 3.353-0.211 0.721-0.312 1.455-0.371 2.206-0.1 1.279 0.116 2.51 0.518 3.704 0.327 0.974 0.829 1.873 1.482 2.678 0.302 0.373 0.488 0.765 0.4 1.278-0.089 0.52-0.705 0.968-1.227 0.932-0.52-0.036-0.83-0.298-1.129-0.677-1.020-1.293-1.729-2.741-2.146-4.324-0.174-0.66-0.222-1.354-0.33-2.033-0.007-0.043-0.039-0.083-0.058-0.124 0-0.59 0-1.179 0-1.769 0.020-0.061 0.052-0.121 0.059-0.184 0.046-0.407 0.052-0.821 0.134-1.22 0.321-1.558 0.874-3.029 1.77-4.352 0.41-0.606 0.764-1.282 1.515-1.566 0.161 0 0.324 0 0.487 0z"></path>
		<path d="M29.24 9.593c-0.040 0.22-0.097 0.438-0.118 0.66-0.103 1.090-0.419 2.122-0.831 3.129-0.43 1.050-1.029 2.001-1.735 2.884-0.345 0.432-0.824 0.593-1.36 0.451-0.527-0.14-0.815-0.542-0.876-1.059-0.045-0.382 0.124-0.745 0.367-1.043 0.65-0.796 1.165-1.673 1.49-2.642 0.22-0.655 0.351-1.342 0.494-2.021 0.073-0.351 0.111-0.714 0.119-1.072 0.009-0.392 0.009-0.793-0.063-1.176-0.143-0.76-0.287-1.526-0.523-2.26-0.333-1.031-0.883-1.961-1.57-2.8-0.497-0.607-0.504-1.388 0.124-1.894 0.132-0.106 0.302-0.166 0.454-0.248 0.183 0 0.366 0 0.549 0 0.635 0.218 0.99 0.757 1.322 1.267 0.447 0.687 0.821 1.425 1.176 2.166 0.475 0.99 0.75 2.044 0.861 3.139 0.025 0.251 0.079 0.5 0.119 0.75-0.001 0.59-0.001 1.18-0.001 1.77z"></path>
		<path d="M24.421 8.566c0.038 1.926-0.546 3.544-1.546 5.027-0.161 0.24-0.372 0.45-0.581 0.653-0.296 0.288-0.89 0.372-1.341 0.143-0.414-0.21-0.639-0.683-0.637-1.121 0.002-0.419 0.218-0.716 0.445-1.020 0.645-0.862 1.024-1.821 1.166-2.894 0.162-1.226-0.092-2.365-0.636-3.446-0.204-0.406-0.501-0.765-0.756-1.145-0.268-0.401-0.326-0.84-0.109-1.259 0.269-0.52 0.742-0.785 1.321-0.666 0.279 0.057 0.586 0.243 0.768 0.463 0.746 0.905 1.304 1.921 1.607 3.066 0.2 0.759 0.342 1.523 0.3 2.197z"></path>
		<path d="M7.521 8.691c0.013-1.345 0.327-2.609 0.924-3.79 0.299-0.591 0.681-1.15 1.094-1.669 0.294-0.369 0.801-0.538 1.339-0.347 0.447 0.16 0.851 0.672 0.84 1.095-0.012 0.469-0.271 0.835-0.542 1.195-0.625 0.83-0.965 1.765-1.102 2.795-0.147 1.107 0.030 2.153 0.501 3.147 0.219 0.463 0.491 0.913 0.806 1.316 0.577 0.738 0.344 1.89-0.756 2.086-0.52 0.092-0.943-0.202-1.261-0.617-0.796-1.043-1.373-2.191-1.611-3.488-0.104-0.569-0.157-1.148-0.232-1.723z"></path>
	</symbol>
	<symbol id="icon-time" viewBox="0 0 32 32">
		<title>time</title>
		<path d="M31.499 15.092c0 0.605 0 1.211 0 1.816-0.025 0.217-0.050 0.435-0.074 0.653-0.371 3.335-1.645 6.277-3.893 8.772-2.387 2.648-5.344 4.302-8.863 4.925-0.583 0.104-1.174 0.162-1.762 0.241-0.605 0-1.211 0-1.816 0-0.078-0.017-0.155-0.044-0.233-0.050-2.425-0.171-4.693-0.865-6.762-2.133-4.015-2.461-6.487-6.009-7.354-10.65-0.109-0.581-0.162-1.172-0.241-1.759 0-0.606 0-1.211 0-1.816 0.025-0.218 0.050-0.435 0.074-0.653 0.371-3.335 1.645-6.277 3.893-8.772 2.387-2.648 5.344-4.302 8.863-4.925 0.583-0.104 1.174-0.162 1.762-0.241 0.605 0 1.211 0 1.816 0 0.078 0.017 0.155 0.044 0.234 0.050 2.425 0.171 4.693 0.865 6.762 2.133 4.015 2.461 6.487 6.009 7.354 10.65 0.108 0.582 0.162 1.173 0.241 1.759zM15.985 3.799c-6.729 0.034-12.184 5.496-12.186 12.2-0.001 6.709 5.532 12.232 12.215 12.202 6.776-0.030 12.218-5.557 12.181-12.231-0.038-6.75-5.532-12.206-12.21-12.171z"></path>
		<path d="M17.108 15.518c0.162 0 0.282 0 0.402 0 2.148 0 4.297-0.002 6.445 0.001 0.883 0.001 1.461 0.606 1.379 1.425-0.059 0.592-0.538 1.064-1.131 1.113-0.12 0.010-0.242 0.010-0.363 0.010-2.592 0.001-5.185-0.020-7.777 0.010-1.010 0.012-1.521-0.639-1.516-1.505 0.019-3.087 0.007-6.173 0.008-9.259 0-0.722 0.315-1.195 0.906-1.379 0.777-0.242 1.571 0.289 1.633 1.101 0.018 0.241 0.013 0.484 0.013 0.726 0.001 2.451 0 4.902 0 7.353 0 0.12 0 0.239 0 0.404z"></path>
	</symbol>
	<symbol id="icon-pin" viewBox="0 0 32 32">
		<title>pin</title>
		<path d="M15.396 0.501c0.406 0 0.812 0 1.217 0 0.474 0.090 0.947 0.183 1.421 0.269 6.79 1.235 10.432 9.167 6.968 15.154-2.862 4.947-5.705 9.905-8.557 14.857-0.127 0.222-0.264 0.439-0.431 0.717-0.14-0.214-0.243-0.357-0.33-0.509-2.875-4.986-5.749-9.973-8.623-14.959-0.76-1.319-1.22-2.739-1.354-4.249-0.449-5.046 2.868-9.674 7.796-10.899 0.624-0.155 1.262-0.255 1.893-0.381zM19.928 10.903c0.003-2.183-1.757-3.959-3.924-3.958s-3.925 1.775-3.922 3.959c0.003 2.159 1.725 3.891 3.892 3.915 2.175 0.024 3.95-1.734 3.953-3.915z"></path>
	</symbol>
	<symbol id="icon-facebook" viewBox="0 0 32 32">
		<title>facebook</title>
		<path d="M16 0.5c-8.56 0-15.5 6.94-15.5 15.5s6.94 15.5 15.5 15.5 15.5-6.94 15.5-15.5c0-8.562-6.94-15.5-15.5-15.5zM20.006 15.998l-2.54 0.002-0.002 9.3h-3.486v-9.3h-2.325v-3.205l2.325-0.002-0.004-1.887c0-2.616 0.709-4.206 3.788-4.206h2.565v3.207h-1.604c-1.199 0-1.257 0.448-1.257 1.283l-0.004 1.604h2.883l-0.339 3.204z"></path>
	</symbol>
	<symbol id="icon-twitter" viewBox="0 0 32 32">
		<title>twitter</title>
		<path d="M16 0.5c-8.56 0-15.5 6.94-15.5 15.5s6.94 15.5 15.5 15.5 15.5-6.94 15.5-15.5c0-8.562-6.94-15.5-15.5-15.5zM23.711 12.52l0.012 0.494c0 5.045-3.838 10.858-10.858 10.858-2.154 0-4.16-0.632-5.849-1.715 0.298 0.035 0.603 0.054 0.911 0.054 1.788 0 3.433-0.61 4.739-1.633-1.67-0.031-3.079-1.135-3.565-2.65 0.234 0.045 0.471 0.066 0.719 0.066 0.349 0 0.686-0.045 1.006-0.132-1.746-0.353-3.061-1.893-3.061-3.741v-0.048c0.515 0.287 1.102 0.457 1.728 0.479-1.023-0.684-1.697-1.852-1.697-3.175 0-0.699 0.188-1.354 0.515-1.918 1.881 2.309 4.694 3.828 7.866 3.987-0.066-0.279-0.099-0.572-0.099-0.87 0-2.106 1.709-3.815 3.817-3.815 1.097 0 2.089 0.463 2.786 1.205 0.868-0.172 1.686-0.49 2.424-0.926-0.285 0.891-0.889 1.639-1.678 2.112 0.769-0.091 1.507-0.298 2.191-0.601-0.511 0.763-1.16 1.436-1.906 1.97z"></path>
	</symbol>
	<symbol id="icon-instagram" viewBox="0 0 32 32">
		<title>instagram</title>
		<path d="M18.967 16c0 1.638-1.328 2.967-2.967 2.967s-2.967-1.328-2.967-2.967 1.328-2.967 2.967-2.967 2.967 1.328 2.967 2.967z"></path>
		<path d="M22.938 10.751c-0.143-0.386-0.37-0.736-0.666-1.023-0.287-0.296-0.637-0.523-1.023-0.666-0.314-0.122-0.785-0.267-1.652-0.306-0.939-0.043-1.22-0.052-3.597-0.052s-2.658 0.009-3.597 0.052c-0.868 0.040-1.339 0.185-1.652 0.307-0.387 0.143-0.736 0.37-1.023 0.666-0.296 0.287-0.523 0.637-0.666 1.023-0.122 0.314-0.267 0.785-0.306 1.653-0.043 0.938-0.052 1.22-0.052 3.597s0.009 2.658 0.052 3.597c0.040 0.868 0.184 1.339 0.306 1.652 0.143 0.387 0.37 0.736 0.666 1.023 0.287 0.296 0.637 0.523 1.023 0.666 0.314 0.122 0.785 0.267 1.653 0.307 0.938 0.043 1.22 0.052 3.596 0.052s2.658-0.009 3.597-0.052c0.868-0.040 1.339-0.184 1.653-0.307 0.776-0.299 1.39-0.913 1.689-1.689 0.122-0.314 0.267-0.785 0.307-1.652 0.043-0.939 0.052-1.22 0.052-3.597s-0.009-2.658-0.052-3.597c-0.040-0.868-0.184-1.339-0.307-1.653zM16 20.57c-2.524 0-4.571-2.046-4.571-4.57s2.046-4.57 4.571-4.57c2.524 0 4.57 2.046 4.57 4.57s-2.046 4.57-4.57 4.57zM20.751 12.317c-0.59 0-1.068-0.478-1.068-1.068s0.478-1.068 1.068-1.068 1.068 0.478 1.068 1.068c-0 0.59-0.478 1.068-1.068 1.068z"></path>
		<path d="M16 0.5c-8.559 0-15.5 6.941-15.5 15.5s6.941 15.5 15.5 15.5 15.5-6.941 15.5-15.5-6.941-15.5-15.5-15.5zM24.846 19.669c-0.043 0.947-0.194 1.594-0.414 2.16-0.462 1.196-1.407 2.141-2.603 2.603-0.566 0.22-1.213 0.37-2.16 0.414-0.949 0.043-1.252 0.054-3.669 0.054s-2.72-0.010-3.67-0.054c-0.947-0.043-1.594-0.194-2.16-0.414-0.594-0.224-1.132-0.574-1.577-1.027-0.453-0.444-0.803-0.982-1.026-1.576-0.22-0.566-0.371-1.213-0.414-2.16-0.044-0.949-0.054-1.253-0.054-3.67s0.010-2.72 0.054-3.669c0.043-0.947 0.193-1.594 0.413-2.161 0.224-0.594 0.574-1.132 1.027-1.576 0.444-0.453 0.982-0.803 1.576-1.027 0.566-0.22 1.213-0.37 2.16-0.414 0.949-0.043 1.252-0.054 3.669-0.054s2.72 0.010 3.669 0.054c0.947 0.043 1.594 0.193 2.16 0.413 0.594 0.224 1.132 0.574 1.577 1.027 0.453 0.445 0.803 0.982 1.026 1.576 0.22 0.566 0.371 1.213 0.414 2.16 0.043 0.949 0.053 1.252 0.053 3.669s-0.010 2.72-0.054 3.669z"></path>
	</symbol>
	<symbol id="icon-youtube" viewBox="0 0 32 32">
		<title>youtube</title>
		<path d="M14.069 18.904l5.042-2.904-5.042-2.904z"></path>
		<path d="M16 0.5c-8.559 0-15.5 6.941-15.5 15.5s6.941 15.5 15.5 15.5 15.5-6.941 15.5-15.5-6.941-15.5-15.5-15.5zM25.685 16.016s0 3.143-0.399 4.659c-0.224 0.83-0.878 1.484-1.707 1.707-1.516 0.399-7.579 0.399-7.579 0.399s-6.047 0-7.579-0.415c-0.83-0.223-1.484-0.878-1.707-1.707-0.399-1.5-0.399-4.659-0.399-4.659s0-3.143 0.399-4.659c0.223-0.83 0.894-1.5 1.707-1.723 1.516-0.399 7.579-0.399 7.579-0.399s6.063 0 7.579 0.415c0.83 0.223 1.484 0.878 1.707 1.707 0.415 1.516 0.399 4.675 0.399 4.675z"></path>
	</symbol>
	<symbol id="icon-close" viewBox="0 0 32 32">
		<title>close</title>
		<path d="M31.499 3.621l-12.379 12.379 12.379 12.379-3.121 3.121-12.379-12.379-12.379 12.379-3.121-3.121 12.379-12.379-12.379-12.379 3.121-3.121 12.379 12.379 12.379-12.379z"></path>
	</symbol>
	<view id="arrow" viewBox="0 0 32 32" />
	<view id="arrow-2" viewBox="0 32 32 32" />
	<view id="search" viewBox="0 64 32 32" />
	<view id="play" viewBox="0 96 32 32" />
	<view id="play-2" viewBox="0 128 32 32" />
	<view id="eq" viewBox="0 160 32 32" />
	<view id="radio" viewBox="0 192 32 32" />
	<view id="time" viewBox="0 224 32 32" />
	<view id="pin" viewBox="0 256 32 32" />
	<view id="facebook" viewBox="0 288 32 32" />
	<view id="twitter" viewBox="0 320 32 32" />
	<view id="instagram" viewBox="0 352 32 32" />
	<view id="youtube" viewBox="0 384 32 32" />
	<view id="close" viewBox="0 416 32 32" />
	<use xlink:href="#icon-arrow" width="32" height="32" x="0" y="0" fill="#fff"></use>
	<use xlink:href="#icon-arrow-2" width="32" height="32" x="0" y="32" fill="#fff"></use>
	<use xlink:href="#icon-search" width="32" height="32" x="0" y="64" fill="#fff"></use>
	<use xlink:href="#icon-play" width="32" height="32" x="0" y="96" fill="#fff"></use>
	<use xlink:href="#icon-play-2" width="32" height="32" x="0" y="128" fill="#fff"></use>
	<use xlink:href="#icon-eq" width="32" height="32" x="0" y="160" fill="#fff"></use>
	<use xlink:href="#icon-radio" width="32" height="32" x="0" y="192" fill="#fff"></use>
	<use xlink:href="#icon-time" width="32" height="32" x="0" y="224" fill="#fff"></use>
	<use xlink:href="#icon-pin" width="32" height="32" x="0" y="256" fill="#fff"></use>
	<use xlink:href="#icon-facebook" width="32" height="32" x="0" y="288" fill="#fff"></use>
	<use xlink:href="#icon-twitter" width="32" height="32" x="0" y="320" fill="#fff"></use>
	<use xlink:href="#icon-instagram" width="32" height="32" x="0" y="352" fill="#fff"></use>
	<use xlink:href="#icon-youtube" width="32" height="32" x="0" y="384" fill="#fff"></use>
	<use xlink:href="#icon-close" width="32" height="32" x="0" y="416" fill="#fff"></use>
	<use xlink:href="#icon-arrow-2" width="32" height="32" x="0" y="448" fill="#ec396e"></use>
	<use xlink:href="#icon-arrow-2" width="32" height="32" x="0" y="480" fill="#00b9cd"></use>
	<use xlink:href="#icon-play" width="32" height="32" x="0" y="512" fill="#ec396e"></use>
	<use xlink:href="#icon-eq" width="32" height="32" x="0" y="544" fill="#ec396e"></use>
	<use xlink:href="#icon-time" width="32" height="32" x="0" y="576" fill="#00b9cd"></use>
	<use xlink:href="#icon-pin" width="32" height="32" x="0" y="608" fill="#00b9cd"></use>
</svg>
