<svg xmlns="http://www.w3.org/2000/svg" xmlns:xlink="http://www.w3.org/1999/xlink" width="76" height="32" viewBox="0 0 76 32">
	<symbol id="icon-equalizer" viewBox="0 0 76 32">
		<title>equalizer</title>
		<path d="M0.008 17.579h5.013v1.854h-5.013v-1.854z"></path>
		<path d="M0.008 30.351h5.013v1.648h-5.013v-1.648z"></path>
		<path d="M0.008 20.257h5.013v1.442h-5.013v-1.442z"></path>
		<path d="M0.008 25.201h5.013v1.511h-5.013v-1.511z"></path>
		<path d="M0.008 27.673h5.013v1.785h-5.013v-1.785z"></path>
		<path d="M0.008 22.729h5.013v1.648h-5.013v-1.648z"></path>
		<path d="M5.982 30.351h4.944v1.648h-4.944v-1.648z"></path>
		<path d="M5.982 20.257h4.944v1.442h-4.944v-1.442z"></path>
		<path d="M5.982 25.201h4.944v1.511h-4.944v-1.511z"></path>
		<path d="M5.982 27.673h4.944v1.785h-4.944v-1.785z"></path>
		<path d="M5.982 17.579h4.944v1.854h-4.944v-1.854z"></path>
		<path d="M5.982 22.729h4.944v1.648h-4.944v-1.648z"></path>
		<path d="M5.982 14.97h4.944v1.785h-4.944v-1.785z"></path>
		<path d="M11.75 30.351h5.013v1.648h-5.013v-1.648z"></path>
		<path d="M11.75 20.257h5.013v1.442h-5.013v-1.442z"></path>
		<path d="M11.75 25.201h5.013v1.511h-5.013v-1.511z"></path>
		<path d="M11.75 27.673h5.013v1.785h-5.013v-1.785z"></path>
		<path d="M11.75 17.579h5.013v1.854h-5.013v-1.854z"></path>
		<path d="M11.75 22.729h5.013v1.648h-5.013v-1.648z"></path>
		<path d="M11.75 14.97h5.013v1.785h-5.013v-1.785z"></path>
		<path d="M17.655 30.351h5.081v1.648h-5.081v-1.648z"></path>
		<path d="M17.655 20.257h5.081v1.442h-5.081v-1.442z"></path>
		<path d="M17.655 25.201h5.081v1.511h-5.081v-1.511z"></path>
		<path d="M17.655 27.673h5.081v1.785h-5.081v-1.785z"></path>
		<path d="M17.655 17.579h5.081v1.854h-5.081v-1.854z"></path>
		<path d="M17.655 22.729h5.081v1.648h-5.081v-1.648z"></path>
		<path d="M17.655 14.97h5.081v1.785h-5.081v-1.785z"></path>
		<path d="M17.655 12.635h5.081v1.785h-5.081v-1.785z"></path>
		<path d="M23.561 30.351h4.944v1.648h-4.944v-1.648z"></path>
		<path d="M23.561 20.257h4.944v1.442h-4.944v-1.442z"></path>
		<path d="M23.561 25.201h4.944v1.511h-4.944v-1.511z"></path>
		<path d="M23.561 27.673h4.944v1.785h-4.944v-1.785z"></path>
		<path d="M23.561 17.579h4.944v1.854h-4.944v-1.854z"></path>
		<path d="M23.561 22.729h4.944v1.648h-4.944v-1.648z"></path>
		<path d="M23.561 14.97h4.944v1.785h-4.944v-1.785z"></path>
		<path d="M23.561 12.635h4.944v1.785h-4.944v-1.785z"></path>
		<path d="M23.561 9.957h4.944v1.785h-4.944v-1.785z"></path>
		<path d="M23.561 0.001h4.944v1.648h-4.944v-1.648z"></path>
		<path d="M23.561 5.013h4.944v1.785h-4.944v-1.785z"></path>
		<path d="M23.561 7.623h4.944v1.511h-4.944v-1.511z"></path>
		<path d="M23.561 2.679h4.944v1.373h-4.944v-1.373z"></path>
		<path d="M29.466 30.351h4.944v1.648h-4.944v-1.648z"></path>
		<path d="M29.466 20.257h4.944v1.442h-4.944v-1.442z"></path>
		<path d="M29.466 25.201h4.944v1.511h-4.944v-1.511z"></path>
		<path d="M29.466 27.673h4.944v1.785h-4.944v-1.785z"></path>
		<path d="M29.466 17.579h4.944v1.854h-4.944v-1.854z"></path>
		<path d="M29.466 22.729h4.944v1.648h-4.944v-1.648z"></path>
		<path d="M29.466 14.97h4.944v1.785h-4.944v-1.785z"></path>
		<path d="M29.466 12.635h4.944v1.785h-4.944v-1.785z"></path>
		<path d="M35.303 17.579h5.081v1.854h-5.081v-1.854z"></path>
		<path d="M35.303 30.351h5.081v1.648h-5.081v-1.648z"></path>
		<path d="M35.303 20.257h5.081v1.442h-5.081v-1.442z"></path>
		<path d="M35.303 25.201h5.081v1.511h-5.081v-1.511z"></path>
		<path d="M35.303 27.673h5.081v1.785h-5.081v-1.785z"></path>
		<path d="M35.303 22.729h5.081v1.648h-5.081v-1.648z"></path>
		<path d="M41.208 17.579h4.944v1.854h-4.944v-1.854z"></path>
		<path d="M41.208 30.351h4.944v1.648h-4.944v-1.648z"></path>
		<path d="M41.208 20.257h4.944v1.442h-4.944v-1.442z"></path>
		<path d="M41.208 25.201h4.944v1.511h-4.944v-1.511z"></path>
		<path d="M41.208 27.673h4.944v1.785h-4.944v-1.785z"></path>
		<path d="M41.208 22.729h4.944v1.648h-4.944v-1.648z"></path>
		<path d="M47.182 30.351h4.944v1.648h-4.944v-1.648z"></path>
		<path d="M47.182 20.257h4.944v1.442h-4.944v-1.442z"></path>
		<path d="M47.182 25.201h4.944v1.511h-4.944v-1.511z"></path>
		<path d="M47.182 27.673h4.944v1.785h-4.944v-1.785z"></path>
		<path d="M47.182 17.579h4.944v1.854h-4.944v-1.854z"></path>
		<path d="M47.182 22.729h4.944v1.648h-4.944v-1.648z"></path>
		<path d="M47.182 14.97h4.944v1.785h-4.944v-1.785z"></path>
		<path d="M52.95 30.351h5.013v1.648h-5.013v-1.648z"></path>
		<path d="M52.95 20.257h5.013v1.442h-5.013v-1.442z"></path>
		<path d="M52.95 25.201h5.013v1.511h-5.013v-1.511z"></path>
		<path d="M52.95 27.673h5.013v1.785h-5.013v-1.785z"></path>
		<path d="M52.95 17.579h5.013v1.854h-5.013v-1.854z"></path>
		<path d="M52.95 22.729h5.013v1.648h-5.013v-1.648z"></path>
		<path d="M52.95 14.97h5.013v1.785h-5.013v-1.785z"></path>
		<path d="M52.95 12.635h5.013v1.785h-5.013v-1.785z"></path>
		<path d="M58.924 17.579h5.013v1.854h-5.013v-1.854z"></path>
		<path d="M58.924 30.351h5.013v1.648h-5.013v-1.648z"></path>
		<path d="M58.924 20.257h5.013v1.442h-5.013v-1.442z"></path>
		<path d="M58.924 25.201h5.013v1.511h-5.013v-1.511z"></path>
		<path d="M58.924 27.673h5.013v1.785h-5.013v-1.785z"></path>
		<path d="M58.924 22.729h5.013v1.648h-5.013v-1.648z"></path>
		<path d="M64.761 30.351h4.944v1.648h-4.944v-1.648z"></path>
		<path d="M64.761 20.257h4.944v1.442h-4.944v-1.442z"></path>
		<path d="M64.761 25.201h4.944v1.511h-4.944v-1.511z"></path>
		<path d="M64.761 27.673h4.944v1.785h-4.944v-1.785z"></path>
		<path d="M64.761 17.579h4.944v1.854h-4.944v-1.854z"></path>
		<path d="M64.761 22.729h4.944v1.648h-4.944v-1.648z"></path>
		<path d="M64.761 14.97h4.944v1.785h-4.944v-1.785z"></path>
		<path d="M70.598 30.351h5.081v1.648h-5.081v-1.648z"></path>
		<path d="M70.598 25.201h5.081v1.511h-5.081v-1.511z"></path>
		<path d="M70.598 27.673h5.081v1.785h-5.081v-1.785z"></path>
	</symbol>
	<view id="equalizer" viewBox="0 0 76 32" />
	<use xlink:href="#icon-equalizer" width="76" height="32" x="0" y="0" fill="#140b20"></use>
</svg>
