<svg xmlns="http://www.w3.org/2000/svg" xmlns:xlink="http://www.w3.org/1999/xlink" width="1102" height="466" viewBox="0 0 1102 466">
	<polygon fill="none" stroke="#ec396e" stroke-width="2" stroke-miterlimit="10" points="473.034,259.45 461.293,241.134 540.129,191.658 544.309,212.321 "/>
	<path fill="none" stroke="#ec396e" stroke-width="2" stroke-miterlimit="10" d="M648.189,182.539"/>
	<path fill="none" stroke="#ec396e" stroke-width="2" stroke-miterlimit="10" d="M639.496,181.211l-92.99,29.021l4.179-20.662 l83.239-22.752c0,0,1.045-0.581,1.741-1.509c0.696-0.928,3.135-5.919,4.993-6.384c1.855-0.464,50.03,0.696,50.03,0.696 s7.429,0,8.706,9.171c1.277,9.17-8.822,9.287-8.822,9.287s-4.644,0.116-7.081-4.412c-1.394-2.787-3.658-0.499-4.644,0.116 c-4.832,3.017-13.063,7.524-17.992,10.505c-1.553,0.938-4.992,2.96-7.895-0.29c-2.9-3.25-2.9-3.25-2.9-3.25L639.496,181.211z"/>
	<line fill="none" stroke="#ec396e" stroke-width="2" stroke-miterlimit="10" x1="620.146" y1="170.583" x2="624.841" y2="185.785"/>
	<line fill="none" stroke="#ec396e" stroke-width="2" stroke-miterlimit="10" x1="608.193" y1="173.851" x2="612.816" y2="189.538"/>
	<line fill="none" stroke="#ec396e" stroke-width="2" stroke-miterlimit="10" x1="596.487" y1="177.05" x2="601.473" y2="193.078"/>
	<line fill="none" stroke="#ec396e" stroke-width="2" stroke-miterlimit="10" x1="585.576" y1="180.032" x2="590.394" y2="195.722"/>
	<line fill="none" stroke="#ec396e" stroke-width="2" stroke-miterlimit="10" x1="575.137" y1="182.886" x2="580.049" y2="199.764"/>
	<line fill="none" stroke="#ec396e" stroke-width="2" stroke-miterlimit="10" x1="565.088" y1="185.785" x2="570.166" y2="202.848"/>
	<line fill="none" stroke="#ec396e" stroke-width="2" stroke-miterlimit="10" x1="555.77" y1="188.18" x2="561.334" y2="205.604"/>
	<line fill="none" stroke="#ec396e" stroke-width="2" stroke-miterlimit="10" x1="548.935" y1="199.526" x2="552.227" y2="208.447"/>
	<ellipse fill="#ec396e" cx="645.842" cy="154.628" rx="2.708" ry="2.206"/>
	<ellipse fill="#ec396e" cx="653.813" cy="154.628" rx="2.709" ry="2.206"/>
	<ellipse fill="#ec396e" cx="662.17" cy="154.628" rx="2.708" ry="2.206"/>
	<ellipse fill="#ec396e" cx="670.296" cy="154.628" rx="2.708" ry="2.206"/>
	<ellipse fill="#ec396e" cx="678.732" cy="154.628" rx="2.708" ry="2.206"/>
	<ellipse fill="#ec396e" cx="687.553" cy="154.628" rx="2.708" ry="2.206"/>
	<path fill="none" stroke="#ec396e" stroke-width="2" stroke-linecap="round" stroke-miterlimit="10" d="M484.996,225.945 c0,0-8.015,1.931-11.729-8.748c-3.715-10.68,2.649-17.551,7.197-20.539c2.93-1.925,11.376-5.188,7.894-11.594	c-7.43-8.263-22.288,0-22.288,0s-12.305,7.204-24.61,23.383s-18.573,19.198-28.324,22.215 c-55.488,6.269-63.149,24.261-63.149,24.261s-11.457,10.8-6.268,32.852c1.857,7.894,5.148,14.222,9.635,22.751 c7.201,13.691,19.771,32.391,26.35,38.54c0,0,14.163,14.277,32.968,10.564c17.528-4.18,28.208-18.109,28.208-18.109 s8.242-8.591,14.046-19.502s11.84-18.573,15.903-20.546c2.542-1.236,2.786-2.206,21.707-6.037 c16.367-4.759,21.36-12.769,21.36-12.769s7.777-7.429,0-12.886c-4.296-1.508-7.778,1.037-7.778,1.037s-10.563,5.697-17.412,0.705 c-6.849-4.992-9.356-13.457-8.312-16.938"/>
	<path fill="none" stroke="#ec396e" stroke-width="2" stroke-linecap="round" stroke-linejoin="round" stroke-miterlimit="10" d="M475.959,257.517c0,0-1.205,12.542,11.004,18.999c10.099,5.339,14.593,2.246,18.69,0c1.692-0.93,3.591-1.904,4.875-2.322 c0.911-0.297,3.831,0,2.206,3.134c-2.079,4.01-7.778,9.983-13.466,11.608s-13.189,3.675-17.296,4.643 c-3.881,0.916-14.046,1.975-23.216,13.233c-6.733,11.608-19.169,29.409-22.636,33.315c-2.059,2.32-10.563,10.216-14.162,4.759 c-3.802-5.763-1.338-11.647,0-15.205c1.841-4.899,3.133-12.306-2.555-20.778c-5.688-8.476-13.607-22.9-19.501-29.485 c-3.031-3.385-8.242-8.599-1.51-18.108c7.501-10.596,20.431-11.842,20.431-11.842s17.767-3.434,23.216-5.92 c5.329-2.431,15.233-9.089,19.252-13.349c1.385-1.468,3.384-4.875,6.053-5.34c2.67-0.464,4.644,3.134,4.295,8.59"/>
	<path fill="none" stroke="#ec396e" stroke-width="2" stroke-miterlimit="10" d="M410.376,308.999 c-0.423,0.292-1.001,0.183-1.291-0.241l-17.511-25.572c-0.291-0.424-0.182-1.002,0.241-1.291l9.482-6.492 c0.423-0.291,1.001-0.184,1.29,0.241l17.512,25.573c0.29,0.423,0.182,1-0.241,1.29L410.376,308.999z"/>
	<line fill="none" stroke="#ec396e" stroke-miterlimit="10" x1="540.667" y1="194.316" x2="395.107" y2="284.523"/>
	<line fill="none" stroke="#ec396e" stroke-miterlimit="10" x1="541.06" y1="197.816" x2="398.688" y2="286.902"/>
	<line fill="none" stroke="#ec396e" stroke-miterlimit="10" x1="541.989" y1="200.851" x2="400.367" y2="290.561"/>
	<line fill="none" stroke="#ec396e" stroke-miterlimit="10" x1="541.989" y1="204.66" x2="403.153" y2="294.275"/>
	<line fill="none" stroke="#ec396e" stroke-miterlimit="10" x1="542.869" y1="207.75" x2="405.242" y2="298.338"/>
	<line fill="none" stroke="#ec396e" stroke-miterlimit="10" x1="550.579" y1="191.752" x2="645.842" y2="164.031"/>
	<line fill="none" stroke="#ec396e" stroke-miterlimit="10" x1="549.441" y1="195.722" x2="653.813" y2="164.959"/>
	<line fill="none" stroke="#ec396e" stroke-miterlimit="10" x1="548.624" y1="199.764" x2="663.319" y2="164.461"/>
	<line fill="none" stroke="#ec396e" stroke-miterlimit="10" x1="547.901" y1="203.336" x2="670.297" y2="164.959"/>
	<line fill="none" stroke="#ec396e" stroke-miterlimit="10" x1="547.361" y1="206.003" x2="678.731" y2="164.761"/>
	<line fill="none" stroke="#ec396e" stroke-miterlimit="10" x1="546.868" y1="207.75" x2="686.792" y2="164.659"/>
	<line fill="none" stroke="#ec396e" stroke-miterlimit="10" x1="408.261" y1="301.937" x2="543.886" y2="210.231"/>
	<circle fill="#ec396e" cx="646.165" cy="163.501" r="2.025"/>
	<circle fill="#ec396e" cx="654.496" cy="163.501" r="2.025"/>
	<circle fill="#ec396e" cx="663.319" cy="163.501" r="2.024"/>
	<circle fill="#ec396e" cx="671.562" cy="164.031" r="2.024"/>
	<circle fill="#ec396e" cx="679.921" cy="164.031" r="2.024"/>
	<circle fill="#ec396e" cx="688.417" cy="164.031" r="2.024"/>
	<line fill="none" stroke="#ec396e" stroke-width="2" stroke-miterlimit="10" x1="633.924" y1="166.817" x2="638.643" y2="181.478"/>
	<g>
		<path fill="#ec396e" d="M615.031,95.346c0,0,2.806,0.463,7.629,1.679c2.409,0.613,5.322,1.42,8.61,2.521c3.282,1.108,6.965,2.477,10.768,4.447 c1.916,0.953,3.829,2.117,5.729,3.439c1.894,1.33,3.714,2.94,5.266,4.883c1.538,1.938,2.749,4.335,3.02,6.987 c0.294,2.647-0.389,5.379-1.614,7.801c-0.688,1.165-1.321,2.396-2.2,3.451c-0.424,0.543-0.811,1.101-1.271,1.639l-1.359,1.532 c-1.881,2.02-3.904,3.989-6.147,5.697c-4.433,3.476-9.604,6.271-15.234,7.599c-2.808,0.646-5.736,0.903-8.616,0.536 c-2.87-0.365-5.685-1.386-7.986-3.155c-1.139-0.886-2.18-1.927-2.927-3.178c-0.766-1.233-1.236-2.673-1.244-4.143 c0.01-1.463,0.474-2.915,1.286-4.083c0.797-1.184,1.843-2.14,2.963-2.924c1.126-0.777,2.319-1.425,3.55-1.929 c1.234-0.513,2.451-0.954,3.743-1.263c0.624-0.146,1.244-0.292,1.86-0.438c0.626-0.125,1.288-0.162,1.925-0.245 c0.64-0.107,1.279-0.065,1.914-0.047l0.948,0.028l0.933,0.173c2.485,0.426,4.714,1.807,6.18,3.657 c1.499,1.84,2.328,4.003,2.863,6.081c0.521,2.091,0.787,4.146,0.849,6.094c0.042,0.97,0.111,1.912,0.125,2.834 c0.006,0.923,0.011,1.819,0.016,2.687c0.014,1.735-0.067,3.354-0.093,4.853c-0.073,1.497-0.141,2.872-0.202,4.113 c-0.301,4.963-0.606,7.788-0.606,7.788s0.245-2.831,0.438-7.796c0.034-1.241,0.072-2.616,0.113-4.112 c-0.007-1.496,0.039-3.116-0.012-4.841c-0.023-0.862-0.048-1.752-0.072-2.668c-0.034-0.916-0.124-1.86-0.186-2.828 c-0.103-1.929-0.378-3.945-0.915-5.98c-0.545-2.021-1.379-4.1-2.816-5.817c-1.41-1.728-3.478-2.971-5.813-3.346l-0.875-0.154 l-0.9-0.014c-0.602-0.01-1.208-0.045-1.809,0.065c-0.604,0.088-1.206,0.12-1.819,0.25c-0.615,0.153-1.233,0.306-1.855,0.46 c-2.402,0.661-4.868,1.624-6.984,3.104c-1.054,0.743-2.015,1.636-2.726,2.703c-0.728,1.056-1.114,2.319-1.123,3.592 c0.009,2.597,1.708,4.98,3.837,6.582c2.149,1.643,4.816,2.604,7.544,2.939c2.738,0.339,5.554,0.083,8.269-0.55 c5.453-1.262,10.528-3.969,14.888-7.36c2.214-1.674,4.188-3.582,6.048-5.56l1.366-1.526c0.427-0.494,0.818-1.053,1.228-1.573 c0.862-1.024,1.466-2.201,2.136-3.317c1.186-2.315,1.807-4.865,1.574-7.327c-0.221-2.469-1.324-4.742-2.781-6.624 c-1.469-1.886-3.222-3.481-5.067-4.81c-1.852-1.321-3.726-2.495-5.613-3.461c-3.748-1.984-7.38-3.429-10.626-4.605 c-3.253-1.167-6.143-2.035-8.535-2.698C617.827,95.869,615.031,95.346,615.031,95.346z"/>
	</g>
	<g>
		<path fill="#ec396e" d="M565.091,134.338c0,0-0.423,0.517-1.116,1.556c-0.688,1.04-1.66,2.603-2.585,4.74c-0.886,2.122-1.83,4.896-1.571,8.113 c0.132,1.593,0.644,3.26,1.619,4.756c0.981,1.49,2.384,2.798,4.055,3.836c1.664,1.045,3.596,1.842,5.616,2.505 c2.021,0.633,4.218,1.134,6.419,0.902c1.092-0.117,2.168-0.463,3.059-1.105c0.888-0.644,1.563-1.574,1.974-2.637 c0.824-2.142,0.797-4.638,0.345-7.02c-0.484-2.36-1.324-4.891-3.422-6.135c-1.002-0.621-2.227-0.752-3.409-0.48 c-1.186,0.273-2.323,0.86-3.384,1.565c-2.129,1.422-3.982,3.313-5.739,5.257c-1.759,1.964-3.417,4.041-5.038,6.145 c-3.233,4.213-6.279,8.589-9.02,13.035c-0.681,1.112-1.338,2.238-1.906,3.375c-0.529,1.122-0.891,2.338-1.025,3.564 c-0.275,2.418,0.271,5.068,1.974,6.662c0.422,0.386,0.908,0.688,1.435,0.881c0.531,0.191,1.08,0.244,1.691,0.263 c1.202,0.04,2.408,0.002,3.591-0.095c1.182-0.1,2.348-0.259,3.467-0.521c1.105-0.267,2.22-0.621,3.034-1.264 c0.397-0.322,0.673-0.73,0.684-1.178c0.022-0.449-0.189-0.926-0.479-1.35c-0.596-0.854-1.438-1.555-2.28-2.189 c-1.711-1.274-3.524-2.276-5.451-2.621c-1.913-0.39-3.83-0.166-5.521,0.399c-1.701,0.559-3.198,1.43-4.484,2.392 c-2.571,1.942-4.401,4.164-5.59,6.147c-1.181,2.006-1.383,3.904-1.447,5.13c-0.046,1.249,0.082,1.91,0.082,1.91 s-0.145-0.657-0.13-1.911c0.036-1.233,0.181-3.145,1.338-5.218c1.159-2.034,2.948-4.315,5.521-6.354 c1.288-1.009,2.799-1.939,4.551-2.561c1.746-0.618,3.762-0.877,5.785-0.493c2.037,0.337,3.984,1.385,5.729,2.657 c0.879,0.65,1.767,1.353,2.463,2.321c0.335,0.483,0.639,1.074,0.621,1.768c-0.01,0.703-0.444,1.319-0.926,1.71 c-0.992,0.794-2.16,1.151-3.318,1.454c-1.167,0.288-2.363,0.466-3.576,0.583c-1.213,0.114-2.441,0.172-3.693,0.131 c-0.612-0.015-1.308-0.074-1.948-0.304c-0.64-0.229-1.229-0.594-1.73-1.049c-1.012-0.914-1.64-2.156-1.995-3.433 c-0.353-1.287-0.43-2.639-0.286-3.967c0.142-1.333,0.52-2.633,1.095-3.864c0.59-1.192,1.248-2.329,1.932-3.458 c2.749-4.5,5.785-8.901,9.024-13.159c1.627-2.124,3.317-4.202,5.106-6.189c1.806-1.979,3.692-3.896,5.943-5.39 c1.123-0.737,2.347-1.375,3.703-1.683c1.345-0.314,2.88-0.151,4.076,0.606c1.179,0.736,2.105,1.823,2.654,3.042 c0.558,1.2,0.912,2.448,1.156,3.704c0.452,2.5,0.507,5.124-0.435,7.494c-0.471,1.171-1.259,2.238-2.291,2.961 c-1.033,0.724-2.251,1.086-3.432,1.197c-2.385,0.212-4.633-0.351-6.694-1.024c-2.061-0.71-3.999-1.538-5.714-2.642 c-1.706-1.094-3.168-2.465-4.151-4.052c-0.985-1.586-1.477-3.336-1.576-4.979c-0.189-3.317,0.836-6.089,1.771-8.207 c0.979-2.128,1.988-3.671,2.699-4.697C564.656,134.845,565.091,134.338,565.091,134.338z"/>
	</g>
	<g>
		<path fill="#ec396e" d="M613.591,185.171c-0.339,1.869-0.365,3.804,0.026,5.645c0.417,1.821,1.372,3.564,2.931,4.578 c1.555,1.019,3.435,1.368,5.314,1.385c0.947,0.02,1.851-0.035,2.75-0.242c0.462-0.054,0.858-0.284,1.291-0.413 c0.371-0.236,0.805-0.4,1.093-0.729c0.65-0.568,1.078-1.37,1.135-2.242c0.073-0.866-0.096-1.758-0.43-2.593 c-0.364-0.821-0.798-1.632-1.403-2.32c-0.266-0.372-0.619-0.67-0.93-1.004c-0.111-0.114-0.357-0.307-0.516-0.416 c-0.161-0.089-0.318-0.184-0.506-0.232c-0.716-0.237-1.474,0.189-2.056,0.843c-0.587,0.652-1.054,1.455-1.451,2.286 c-0.79,1.675-1.334,3.485-1.76,5.311c-0.42,1.83-0.689,3.696-0.822,5.561c-0.063,0.935-0.076,1.859-0.012,2.791l0.151,2.856 c0.116,1.879,0.14,3.817,0.725,5.505c0.291,0.831,0.775,1.561,1.517,1.867c0.732,0.347,1.662,0.217,2.528,0.035 c0.876-0.212,1.758-0.574,2.581-0.941c0.443-0.212,0.821-0.426,1.171-0.678c0.348-0.263,0.674-0.558,0.875-0.901 c0.198-0.342,0.271-0.714,0.169-1.069c-0.099-0.356-0.359-0.686-0.687-0.952c-0.68-0.522-1.568-0.809-2.466-0.892 c-1.806-0.189-3.677,0.411-5.104,1.572c-1.437,1.164-2.456,2.797-3.118,4.553l0.007-0.023l-0.189,1.048 c-0.043,0.352-0.07,0.705-0.104,1.059c0.008,0.353-0.02,0.71,0.018,1.062c0.03,0.353,0.067,0.706,0.154,1.05 c0.03,0.175,0.077,0.346,0.139,0.512c0.06,0.167,0.1,0.341,0.183,0.498c0.137,0.327,0.309,0.639,0.513,0.93 c0.209,0.287,0.439,0.562,0.715,0.791c0.271,0.231,0.569,0.438,0.9,0.578c-0.338-0.125-0.647-0.317-0.934-0.538 c-0.289-0.218-0.538-0.486-0.766-0.768c-0.223-0.287-0.414-0.599-0.571-0.928c-0.091-0.16-0.14-0.336-0.207-0.506 c-0.069-0.169-0.124-0.343-0.161-0.522c-0.103-0.352-0.153-0.712-0.198-1.074c-0.051-0.362-0.036-0.727-0.058-1.091 c0.021-0.363,0.037-0.727,0.067-1.09l0.155-1.08l0.001-0.008l0.006-0.016c0.617-1.814,1.591-3.579,3.109-4.85 c1.498-1.273,3.505-1.979,5.501-1.815c0.993,0.074,1.995,0.354,2.85,0.977c0.413,0.322,0.796,0.751,0.968,1.312 c0.182,0.56,0.063,1.192-0.21,1.671c-0.559,0.939-1.511,1.527-2.343,1.942c-0.91,0.417-1.791,0.785-2.766,1.032 c-0.96,0.203-2.033,0.394-3.077-0.062c-1.053-0.429-1.692-1.435-2.021-2.372c-0.358-0.958-0.49-1.934-0.605-2.895 c-0.108-0.964-0.161-1.921-0.215-2.873l-0.171-2.843c-0.075-0.967-0.067-1.951-0.01-2.915c0.115-1.934,0.433-3.84,0.869-5.719 c0.452-1.874,1.021-3.728,1.867-5.493c0.431-0.877,0.93-1.739,1.622-2.5c0.36-0.367,0.749-0.736,1.275-0.96 c0.512-0.234,1.147-0.291,1.698-0.115c0.276,0.076,0.531,0.219,0.779,0.375c0.227,0.166,0.36,0.267,0.589,0.484 c0.336,0.363,0.711,0.689,1,1.095c0.647,0.751,1.124,1.64,1.518,2.557c0.352,0.938,0.532,1.963,0.42,2.992 c-0.089,1.034-0.643,2.035-1.434,2.69c-0.364,0.38-0.853,0.564-1.288,0.818c-0.479,0.139-0.938,0.377-1.431,0.427 c-0.959,0.203-1.975,0.237-2.924,0.194c-1.896-0.065-3.929-0.447-5.538-1.609c-1.63-1.147-2.558-3.025-2.914-4.898 C613.037,188.969,613.159,187.022,613.591,185.171z"/>
	</g>
	<g>
		<path fill="#ec396e" d="M547.591,208.671c1.491,1.485,3.104,2.843,4.827,4.028c0.859,0.595,1.76,1.126,2.678,1.612 c0.921,0.48,1.874,0.893,2.856,1.198c0.492,0.149,0.99,0.27,1.493,0.358c0.503,0.076,1.009,0.14,1.514,0.137 c0.253,0.018,0.504-0.005,0.755-0.025c0.252-0.01,0.5-0.039,0.745-0.094c0.495-0.072,0.973-0.229,1.438-0.399l0.686-0.296 l0.648-0.374c0.22-0.117,0.406-0.291,0.611-0.433c0.207-0.142,0.4-0.301,0.578-0.481c0.382-0.328,0.721-0.704,1.046-1.093 c0.339-0.376,0.605-0.818,0.912-1.222l-0.075,0.228c0.038-0.792-0.151-1.559-0.603-2.12c-0.473-0.544-1.19-0.864-1.97-0.936 c-1.57-0.164-3.216,0.41-4.624,1.241c-1.412,0.86-2.627,2.054-3.521,3.455c-0.895,1.403-1.466,3.007-1.692,4.667 c-0.072,0.348-0.056,0.841-0.088,1.255c-0.012,0.43-0.072,0.875-0.01,1.275l0.1,1.235c0.07,0.411,0.173,0.822,0.257,1.234 c0.068,0.418,0.216,0.814,0.356,1.213c0.147,0.396,0.253,0.81,0.455,1.185l0.549,1.15l0.654,1.097 c0.469,0.711,0.96,1.414,1.513,2.069c0.529,0.675,1.124,1.299,1.732,1.906c1.23,1.203,2.565,2.311,4.013,3.263 c-1.521-0.835-2.925-1.878-4.231-3.029c-0.648-0.581-1.286-1.182-1.862-1.839c-0.606-0.632-1.122-1.346-1.632-2.06l-0.714-1.111 l-0.609-1.175c-0.222-0.384-0.349-0.812-0.516-1.222c-0.161-0.413-0.328-0.825-0.416-1.262c-0.104-0.432-0.226-0.86-0.314-1.298 l-0.152-1.351c-0.076-0.459-0.031-0.882-0.021-1.316c0.031-0.449-0.001-0.829,0.081-1.335c0.222-1.774,0.816-3.512,1.77-5.042 c0.953-1.528,2.255-2.839,3.791-3.798c1.535-0.937,3.345-1.58,5.246-1.367c0.938,0.097,1.918,0.51,2.579,1.297 c0.64,0.803,0.846,1.836,0.79,2.764l-0.009,0.143l-0.066,0.086c-0.332,0.431-0.619,0.892-0.988,1.295 c-0.355,0.415-0.726,0.815-1.146,1.172c-0.196,0.192-0.41,0.364-0.639,0.52s-0.436,0.34-0.682,0.469l-0.724,0.406l-0.768,0.319 c-0.524,0.175-1.062,0.328-1.609,0.392c-0.272,0.05-0.547,0.073-0.822,0.076c-0.274,0.013-0.549,0.027-0.821,0.001 c-0.548-0.016-1.087-0.101-1.62-0.2c-0.531-0.111-1.051-0.255-1.562-0.429c-1.017-0.353-1.986-0.812-2.914-1.335 c-0.931-0.52-1.807-1.126-2.647-1.77C550.52,211.711,548.961,210.272,547.591,208.671z"/>
	</g>
	<g>
		<path fill="#ec396e" d="M656.23,291.674c0,0.546-0.441,0.989-0.989,0.989h-6.571c-0.547,0-0.99-0.443-0.99-0.989v-31.269 c0-0.547,0.443-0.989,0.99-0.989h6.57c0.548,0,0.99,0.442,0.99,0.989V291.674L656.23,291.674z"/>
		<path fill="#ec396e" d="M667.296,291.926c0,0.407-0.442,0.737-0.989,0.737h-6.572c-0.547,0-0.99-0.33-0.99-0.737v-23.31 c0-0.407,0.443-0.737,0.99-0.737h6.571c0.548,0,0.989,0.33,0.989,0.737L667.296,291.926L667.296,291.926z"/>
		<path fill="#ec396e" d="M678.556,291.426c0,0.684-0.442,1.237-0.989,1.237h-6.572c-0.547,0-0.99-0.556-0.99-1.237V252.33 c0-0.683,0.443-1.237,0.99-1.237h6.571c0.548,0,0.99,0.555,0.99,1.237V291.426L678.556,291.426z"/>
		<path fill="#ec396e" d="M690.682,291.54c0,0.62-0.441,1.123-0.989,1.123h-6.571c-0.547,0-0.99-0.503-0.99-1.123v-35.487 c0-0.621,0.443-1.125,0.99-1.125h6.571c0.548,0,0.989,0.504,0.989,1.125V291.54z"/>
		<path fill="#ec396e" d="M702.908,292.223c0,0.242-0.442,0.44-0.99,0.44h-6.572c-0.546,0-0.988-0.198-0.988-0.44v-13.962 c0-0.241,0.442-0.44,0.988-0.44h6.572c0.548,0,0.99,0.199,0.99,0.44V292.223L702.908,292.223z"/>
	</g>
	<g opacity="0.45">
		<path fill="#ec396e" d="M597.426,291.674c0,0.546-0.441,0.989-0.989,0.989h-6.571c-0.547,0-0.99-0.443-0.99-0.989v-31.269 c0-0.547,0.443-0.989,0.99-0.989h6.57c0.548,0,0.99,0.442,0.99,0.989V291.674L597.426,291.674z"/>
		<path fill="#ec396e" d="M608.491,291.926c0,0.407-0.442,0.737-0.989,0.737h-6.572c-0.547,0-0.99-0.33-0.99-0.737v-23.31 c0-0.407,0.443-0.737,0.99-0.737h6.571c0.548,0,0.989,0.33,0.989,0.737L608.491,291.926L608.491,291.926z"/>
		<path fill="#ec396e" d="M619.751,291.426c0,0.684-0.442,1.237-0.989,1.237h-6.572c-0.547,0-0.99-0.556-0.99-1.237V252.33 c0-0.683,0.443-1.237,0.99-1.237h6.571c0.548,0,0.99,0.555,0.99,1.237V291.426L619.751,291.426z"/>
		<path fill="#ec396e" d="M631.877,291.54c0,0.62-0.441,1.123-0.989,1.123h-6.571c-0.547,0-0.99-0.503-0.99-1.123v-35.487 c0-0.621,0.443-1.125,0.99-1.125h6.571c0.548,0,0.989,0.504,0.989,1.125V291.54z"/>
		<path fill="#ec396e" d="M644.104,292.223c0,0.242-0.442,0.44-0.99,0.44h-6.572c-0.546,0-0.988-0.198-0.988-0.44v-13.962 c0-0.241,0.442-0.44,0.988-0.44h6.572c0.548,0,0.99,0.199,0.99,0.44V292.223L644.104,292.223z"/>
	</g>
	<g opacity="0.45">
		<path fill="#ec396e" d="M538.756,291.674c0,0.546-0.442,0.989-0.99,0.989h-6.571c-0.547,0-0.99-0.443-0.99-0.989v-31.269 c0-0.547,0.443-0.989,0.99-0.989h6.571c0.547,0,0.99,0.442,0.99,0.989L538.756,291.674L538.756,291.674z"/>
		<path fill="#ec396e" d="M549.821,291.926c0,0.407-0.442,0.737-0.99,0.737h-6.572c-0.546,0-0.99-0.33-0.99-0.737v-23.31 c0-0.407,0.443-0.737,0.99-0.737h6.571c0.547,0,0.99,0.33,0.99,0.737L549.821,291.926L549.821,291.926z"/>
		<path fill="#ec396e" d="M561.08,291.426c0,0.684-0.441,1.237-0.988,1.237h-6.573c-0.546,0-0.989-0.556-0.989-1.237V252.33 c0-0.683,0.443-1.237,0.989-1.237h6.571c0.549,0,0.99,0.555,0.99,1.237V291.426L561.08,291.426z"/>
		<path fill="#ec396e" d="M573.207,291.54c0,0.62-0.442,1.123-0.99,1.123h-6.571c-0.546,0-0.989-0.503-0.989-1.123v-35.487 c0-0.621,0.443-1.125,0.989-1.125h6.571c0.548,0,0.99,0.504,0.99,1.125V291.54z"/>
		<path fill="#ec396e" d="M585.254,292.223c0,0.242-0.443,0.44-0.99,0.44h-6.572c-0.547,0-0.989-0.198-0.989-0.44v-13.962 c0-0.241,0.442-0.44,0.989-0.44h6.572c0.547,0,0.99,0.199,0.99,0.44V292.223L585.254,292.223z"/>
	</g>
</svg>
