<?xml version="1.0" standalone="no"?>
<!DOCTYPE svg PUBLIC "-//W3C//DTD SVG 20010904//EN"
 "http://www.w3.org/TR/2001/REC-SVG-20010904/DTD/svg10.dtd">
<svg version="1.0" xmlns="http://www.w3.org/2000/svg"
 width="512.000000pt" height="512.000000pt" viewBox="0 0 512.000000 512.000000"
 preserveAspectRatio="xMidYMid meet">
<metadata>
Created by potrace 1.11, written by Peter Selinger 2001-2013
</metadata>
<g transform="translate(0.000000,512.000000) scale(0.100000,-0.100000)"
fill="#000000" stroke="none">
<path d="M2092 4434 c-52 -36 -50 67 -48 -1892 l1 -1824 33 -29 32 -29 323 0
c347 0 349 0 379 53 10 17 13 394 15 1807 1 982 0 1804 -3 1827 -3 25 -16 55
-30 73 l-26 30 -327 0 c-280 0 -330 -2 -349 -16z"/>
<path d="M3191 4079 c-12 -11 -26 -31 -30 -42 -12 -30 -11 -3285 0 -3315 22
-58 15 -57 368 -60 291 -3 329 -1 358 14 18 9 36 28 41 43 4 14 8 768 8 1674
l-1 1649 -33 29 -32 29 -328 0 c-319 0 -329 -1 -351 -21z"/>
<path d="M29 3661 l-29 -29 0 -1457 0 -1457 29 -29 29 -29 327 0 c373 0 378 1
392 71 6 30 10 2743 4 2887 -1 13 -13 34 -27 47 l-27 25 -334 0 -335 0 -29
-29z"/>
<path d="M1048 2905 c-15 -9 -29 -26 -32 -42 -8 -40 -5 -2148 3 -2160 3 -5 17
-17 31 -26 22 -15 61 -17 353 -17 293 0 332 2 358 17 16 10 30 24 30 33 7 76
3 2141 -4 2162 -5 17 -20 31 -39 37 -20 7 -148 11 -352 11 -261 -1 -326 -4
-348 -15z"/>
<path d="M4408 2010 c-27 -3 -53 -11 -60 -18 -8 -8 -12 -173 -12 -644 -1 -348
0 -640 2 -649 8 -35 46 -39 395 -39 294 0 346 2 365 16 l22 15 0 644 c0 705 3
674 -58 676 -122 4 -617 3 -654 -1z"/>
</g>
</svg>
